<?xml version="1.0" encoding="UTF-8" standalone="no"?>
<!DOCTYPE svg PUBLIC "-//W3C//DTD SVG 1.1//EN"
 "http://www.w3.org/Graphics/SVG/1.1/DTD/svg11.dtd">
<!-- Generated by graphviz version 2.43.0 (0)
 -->
<!-- Title: G Pages: 1 -->
<svg width="254pt" height="153pt"
 viewBox="0.00 0.00 254.00 153.00" xmlns="http://www.w3.org/2000/svg" xmlns:xlink="http://www.w3.org/1999/xlink">
<g id="graph0" class="graph" transform="scale(1 1) rotate(0) translate(4 149)">
<title>G</title>
<polygon fill="white" stroke="transparent" points="-4,4 -4,-149 250,-149 250,4 -4,4"/>
<g id="clust1" class="cluster">
<title>cluster_0</title>
<path fill="gray" stroke="black" d="M20,-8C20,-8 226,-8 226,-8 232,-8 238,-14 238,-20 238,-20 238,-125 238,-125 238,-131 232,-137 226,-137 226,-137 20,-137 20,-137 14,-137 8,-131 8,-125 8,-125 8,-20 8,-20 8,-14 14,-8 20,-8"/>
<text text-anchor="middle" x="123" y="-121.8" font-family="Times,serif" font-size="14.00">upb Arena</text>
</g>
<!-- upb_msg -->
<g id="node1" class="node">
<title>upb_msg</title>
<path fill="#7fc97f" stroke="black" d="M93,-79C93,-79 28,-79 28,-79 22,-79 16,-73 16,-67 16,-67 16,-55 16,-55 16,-49 22,-43 28,-43 28,-43 93,-43 93,-43 99,-43 105,-49 105,-55 105,-55 105,-67 105,-67 105,-73 99,-79 93,-79"/>
<text text-anchor="middle" x="60.5" y="-57.3" font-family="Times,serif" font-size="14.00">upb Message</text>
</g>
<!-- upb_array -->
<g id="node2" class="node">
<title>upb_array</title>
<path fill="#7fc97f" stroke="black" d="M209,-52C209,-52 162,-52 162,-52 156,-52 150,-46 150,-40 150,-40 150,-28 150,-28 150,-22 156,-16 162,-16 162,-16 209,-16 209,-16 215,-16 221,-22 221,-28 221,-28 221,-40 221,-40 221,-46 215,-52 209,-52"/>
<text text-anchor="middle" x="185.5" y="-30.3" font-family="Times,serif" font-size="14.00">upb Array</text>
</g>
<!-- upb_msg&#45;&gt;upb_array -->
<g id="edge1" class="edge">
<title>upb_msg&#45;&gt;upb_array</title>
<path fill="none" stroke="black" d="M105.21,-51.4C116.42,-48.94 128.49,-46.3 139.75,-43.82"/>
<polygon fill="black" stroke="black" points="140.8,-47.18 149.81,-41.61 139.3,-40.34 140.8,-47.18"/>
</g>
<!-- upb_msg2 -->
<g id="node3" class="node">
<title>upb_msg2</title>
<path fill="#7fc97f" stroke="black" d="M218,-106C218,-106 153,-106 153,-106 147,-106 141,-100 141,-94 141,-94 141,-82 141,-82 141,-76 147,-70 153,-70 153,-70 218,-70 218,-70 224,-70 230,-76 230,-82 230,-82 230,-94 230,-94 230,-100 224,-106 218,-106"/>
<text text-anchor="middle" x="185.5" y="-84.3" font-family="Times,serif" font-size="14.00">upb Message</text>
</g>
<!-- upb_msg&#45;&gt;upb_msg2 -->
<g id="edge2" class="edge">
<title>upb_msg&#45;&gt;upb_msg2</title>
<path fill="none" stroke="black" d="M105.21,-70.6C113.55,-72.43 122.36,-74.36 130.97,-76.25"/>
<polygon fill="black" stroke="black" points="130.41,-79.71 140.93,-78.44 131.91,-72.87 130.41,-79.71"/>
</g>
</g>
</svg>
