<?xml version="1.0" encoding="UTF-8" standalone="no"?>
<!DOCTYPE svg PUBLIC "-//W3C//DTD SVG 1.1//EN"
 "http://www.w3.org/Graphics/SVG/1.1/DTD/svg11.dtd">
<!-- Generated by graphviz version 2.43.0 (0)
 -->
<!-- Title: G Pages: 1 -->
<svg width="409pt" height="153pt"
 viewBox="0.00 0.00 409.00 153.00" xmlns="http://www.w3.org/2000/svg" xmlns:xlink="http://www.w3.org/1999/xlink">
<g id="graph0" class="graph" transform="scale(1 1) rotate(0) translate(4 149)">
<title>G</title>
<polygon fill="white" stroke="transparent" points="-4,4 -4,-149 405,-149 405,4 -4,4"/>
<g id="clust1" class="cluster">
<title>cluster_0</title>
<path fill="gray" stroke="black" d="M20,-8C20,-8 246,-8 246,-8 252,-8 258,-14 258,-20 258,-20 258,-125 258,-125 258,-131 252,-137 246,-137 246,-137 20,-137 20,-137 14,-137 8,-131 8,-125 8,-125 8,-20 8,-20 8,-14 14,-8 20,-8"/>
<text text-anchor="middle" x="133" y="-121.8" font-family="Times,serif" font-size="14.00">upb Arena 1</text>
</g>
<g id="clust2" class="cluster">
<title>cluster_1</title>
<path fill="gray" stroke="black" d="M290,-62C290,-62 381,-62 381,-62 387,-62 393,-68 393,-74 393,-74 393,-125 393,-125 393,-131 387,-137 381,-137 381,-137 290,-137 290,-137 284,-137 278,-131 278,-125 278,-125 278,-74 278,-74 278,-68 284,-62 290,-62"/>
<text text-anchor="middle" x="335.5" y="-121.8" font-family="Times,serif" font-size="14.00">upb Arena 2</text>
</g>
<!-- upb_msg -->
<g id="node1" class="node">
<title>upb_msg</title>
<path fill="#7fc97f" stroke="black" d="M103,-79C103,-79 28,-79 28,-79 22,-79 16,-73 16,-67 16,-67 16,-55 16,-55 16,-49 22,-43 28,-43 28,-43 103,-43 103,-43 109,-43 115,-49 115,-55 115,-55 115,-67 115,-67 115,-73 109,-79 103,-79"/>
<text text-anchor="middle" x="65.5" y="-57.3" font-family="Times,serif" font-size="14.00">upb Message 1</text>
</g>
<!-- upb_array -->
<g id="node2" class="node">
<title>upb_array</title>
<path fill="#7fc97f" stroke="black" d="M224,-52C224,-52 177,-52 177,-52 171,-52 165,-46 165,-40 165,-40 165,-28 165,-28 165,-22 171,-16 177,-16 177,-16 224,-16 224,-16 230,-16 236,-22 236,-28 236,-28 236,-40 236,-40 236,-46 230,-52 224,-52"/>
<text text-anchor="middle" x="200.5" y="-30.3" font-family="Times,serif" font-size="14.00">upb Array</text>
</g>
<!-- upb_msg&#45;&gt;upb_array -->
<g id="edge1" class="edge">
<title>upb_msg&#45;&gt;upb_array</title>
<path fill="none" stroke="black" d="M115.27,-51.1C128.26,-48.46 142.22,-45.63 154.96,-43.04"/>
<polygon fill="black" stroke="black" points="155.78,-46.45 164.88,-41.03 154.39,-39.59 155.78,-46.45"/>
</g>
<!-- upb_msg2 -->
<g id="node3" class="node">
<title>upb_msg2</title>
<path fill="#7fc97f" stroke="black" d="M238,-106C238,-106 163,-106 163,-106 157,-106 151,-100 151,-94 151,-94 151,-82 151,-82 151,-76 157,-70 163,-70 163,-70 238,-70 238,-70 244,-70 250,-76 250,-82 250,-82 250,-94 250,-94 250,-100 244,-106 238,-106"/>
<text text-anchor="middle" x="200.5" y="-84.3" font-family="Times,serif" font-size="14.00">upb Message 2</text>
</g>
<!-- upb_msg&#45;&gt;upb_msg2 -->
<g id="edge2" class="edge">
<title>upb_msg&#45;&gt;upb_msg2</title>
<path fill="none" stroke="black" d="M115.27,-70.9C123.58,-72.59 132.29,-74.36 140.83,-76.09"/>
<polygon fill="black" stroke="black" points="140.24,-79.54 150.74,-78.1 141.63,-72.68 140.24,-79.54"/>
</g>
<!-- upb_msg3 -->
<g id="node4" class="node">
<title>upb_msg3</title>
<path fill="#7fc97f" stroke="black" d="M373,-106C373,-106 298,-106 298,-106 292,-106 286,-100 286,-94 286,-94 286,-82 286,-82 286,-76 292,-70 298,-70 298,-70 373,-70 373,-70 379,-70 385,-76 385,-82 385,-82 385,-94 385,-94 385,-100 379,-106 373,-106"/>
<text text-anchor="middle" x="335.5" y="-84.3" font-family="Times,serif" font-size="14.00">upb Message 3</text>
</g>
<!-- upb_msg2&#45;&gt;upb_msg3 -->
<g id="edge3" class="edge">
<title>upb_msg2&#45;&gt;upb_msg3</title>
<path fill="none" stroke="black" d="M250.27,-88C258.49,-88 267.1,-88 275.55,-88"/>
<polygon fill="black" stroke="black" points="275.74,-91.5 285.74,-88 275.74,-84.5 275.74,-91.5"/>
</g>
</g>
</svg>
