<?xml version="1.0" encoding="UTF-8" standalone="no"?>
<!DOCTYPE svg PUBLIC "-//W3C//DTD SVG 1.1//EN"
 "http://www.w3.org/Graphics/SVG/1.1/DTD/svg11.dtd">
<!-- Generated by graphviz version 2.43.0 (0)
 -->
<!-- Title: G Pages: 1 -->
<svg width="222pt" height="98pt"
 viewBox="0.00 0.00 222.00 98.00" xmlns="http://www.w3.org/2000/svg" xmlns:xlink="http://www.w3.org/1999/xlink">
<g id="graph0" class="graph" transform="scale(1 1) rotate(0) translate(4 94)">
<title>G</title>
<polygon fill="white" stroke="transparent" points="-4,4 -4,-94 218,-94 218,4 -4,4"/>
<!-- upb_msg -->
<g id="node1" class="node">
<title>upb_msg</title>
<path fill="#7fc97f" stroke="black" d="M77,-63C77,-63 12,-63 12,-63 6,-63 0,-57 0,-51 0,-51 0,-39 0,-39 0,-33 6,-27 12,-27 12,-27 77,-27 77,-27 83,-27 89,-33 89,-39 89,-39 89,-51 89,-51 89,-57 83,-63 77,-63"/>
<text text-anchor="middle" x="44.5" y="-41.3" font-family="Times,serif" font-size="14.00">upb Message</text>
</g>
<!-- upb_msg2 -->
<g id="node2" class="node">
<title>upb_msg2</title>
<path fill="#7fc97f" stroke="black" d="M202,-90C202,-90 137,-90 137,-90 131,-90 125,-84 125,-78 125,-78 125,-66 125,-66 125,-60 131,-54 137,-54 137,-54 202,-54 202,-54 208,-54 214,-60 214,-66 214,-66 214,-78 214,-78 214,-84 208,-90 202,-90"/>
<text text-anchor="middle" x="169.5" y="-68.3" font-family="Times,serif" font-size="14.00">upb Message</text>
</g>
<!-- upb_msg&#45;&gt;upb_msg2 -->
<g id="edge1" class="edge">
<title>upb_msg&#45;&gt;upb_msg2</title>
<path fill="none" stroke="black" d="M89.21,-54.6C97.55,-56.43 106.36,-58.36 114.97,-60.25"/>
<polygon fill="black" stroke="black" points="114.41,-63.71 124.93,-62.44 115.91,-56.87 114.41,-63.71"/>
</g>
<!-- upb_array -->
<g id="node3" class="node">
<title>upb_array</title>
<path fill="#7fc97f" stroke="black" d="M193,-36C193,-36 146,-36 146,-36 140,-36 134,-30 134,-24 134,-24 134,-12 134,-12 134,-6 140,0 146,0 146,0 193,0 193,0 199,0 205,-6 205,-12 205,-12 205,-24 205,-24 205,-30 199,-36 193,-36"/>
<text text-anchor="middle" x="169.5" y="-14.3" font-family="Times,serif" font-size="14.00">upb Array</text>
</g>
<!-- upb_msg&#45;&gt;upb_array -->
<g id="edge2" class="edge">
<title>upb_msg&#45;&gt;upb_array</title>
<path fill="none" stroke="black" d="M89.21,-35.4C100.42,-32.94 112.49,-30.3 123.75,-27.82"/>
<polygon fill="black" stroke="black" points="124.8,-31.18 133.81,-25.61 123.3,-24.34 124.8,-31.18"/>
</g>
</g>
</svg>
