<?xml version="1.0" encoding="UTF-8" standalone="no"?>
<!DOCTYPE svg PUBLIC "-//W3C//DTD SVG 1.1//EN"
 "http://www.w3.org/Graphics/SVG/1.1/DTD/svg11.dtd">
<!-- Generated by graphviz version 2.43.0 (0)
 -->
<!-- Title: G Pages: 1 -->
<svg width="417pt" height="303pt"
 viewBox="0.00 0.00 417.00 303.00" xmlns="http://www.w3.org/2000/svg" xmlns:xlink="http://www.w3.org/1999/xlink">
<g id="graph0" class="graph" transform="scale(1 1) rotate(0) translate(4 299)">
<title>G</title>
<polygon fill="white" stroke="transparent" points="-4,4 -4,-299 413,-299 413,4 -4,4"/>
<g id="clust1" class="cluster">
<title>cluster_1</title>
<path fill="gray" stroke="black" d="M29,-98C29,-98 380,-98 380,-98 386,-98 392,-104 392,-110 392,-110 392,-215 392,-215 392,-221 386,-227 380,-227 380,-227 29,-227 29,-227 23,-227 17,-221 17,-215 17,-215 17,-110 17,-110 17,-104 23,-98 29,-98"/>
<text text-anchor="middle" x="204.5" y="-211.8" font-family="Times,serif" font-size="14.00">upb Arena</text>
</g>
<g id="clust2" class="cluster">
<title>cluster_python</title>
</g>
<g id="clust6" class="cluster">
<title>cluster_01</title>
</g>
<!-- upb_msg -->
<g id="node1" class="node">
<title>upb_msg</title>
<path fill="#7fc97f" stroke="black" d="M102,-169C102,-169 37,-169 37,-169 31,-169 25,-163 25,-157 25,-157 25,-145 25,-145 25,-139 31,-133 37,-133 37,-133 102,-133 102,-133 108,-133 114,-139 114,-145 114,-145 114,-157 114,-157 114,-163 108,-169 102,-169"/>
<text text-anchor="middle" x="69.5" y="-147.3" font-family="Times,serif" font-size="14.00">upb Message</text>
</g>
<!-- upb_array -->
<g id="node2" class="node">
<title>upb_array</title>
<path fill="#7fc97f" stroke="black" d="M363,-142C363,-142 316,-142 316,-142 310,-142 304,-136 304,-130 304,-130 304,-118 304,-118 304,-112 310,-106 316,-106 316,-106 363,-106 363,-106 369,-106 375,-112 375,-118 375,-118 375,-130 375,-130 375,-136 369,-142 363,-142"/>
<text text-anchor="middle" x="339.5" y="-120.3" font-family="Times,serif" font-size="14.00">upb Array</text>
</g>
<!-- upb_msg&#45;&gt;upb_array -->
<g id="edge1" class="edge">
<title>upb_msg&#45;&gt;upb_array</title>
<path fill="none" stroke="black" stroke-dasharray="5,2" d="M114.33,-139.43C128.49,-136.14 144.32,-132.93 159,-131 204.59,-125.01 257.21,-123.6 293.64,-123.48"/>
<polygon fill="black" stroke="black" points="293.93,-126.98 303.93,-123.48 293.93,-119.98 293.93,-126.98"/>
</g>
<!-- upb_msg2 -->
<g id="node3" class="node">
<title>upb_msg2</title>
<path fill="#7fc97f" stroke="black" d="M372,-196C372,-196 307,-196 307,-196 301,-196 295,-190 295,-184 295,-184 295,-172 295,-172 295,-166 301,-160 307,-160 307,-160 372,-160 372,-160 378,-160 384,-166 384,-172 384,-172 384,-184 384,-184 384,-190 378,-196 372,-196"/>
<text text-anchor="middle" x="339.5" y="-174.3" font-family="Times,serif" font-size="14.00">upb Message</text>
</g>
<!-- upb_msg&#45;&gt;upb_msg2 -->
<g id="edge2" class="edge">
<title>upb_msg&#45;&gt;upb_msg2</title>
<path fill="none" stroke="black" stroke-dasharray="5,2" d="M108.38,-169.06C123.72,-175.44 141.85,-181.82 159,-185 200.72,-192.74 248.8,-190.27 284.7,-186.27"/>
<polygon fill="black" stroke="black" points="285.44,-189.7 294.95,-185.04 284.61,-182.75 285.44,-189.7"/>
</g>
<!-- dummy -->
<!-- dummy&#45;&gt;upb_array -->
<!-- dummy&#45;&gt;upb_msg2 -->
<!-- py_upb_msg -->
<g id="node5" class="node">
<title>py_upb_msg</title>
<path fill="#beaed4" stroke="black" d="M111,-279C111,-279 28,-279 28,-279 22,-279 16,-273 16,-267 16,-267 16,-255 16,-255 16,-249 22,-243 28,-243 28,-243 111,-243 111,-243 117,-243 123,-249 123,-255 123,-255 123,-267 123,-267 123,-273 117,-279 111,-279"/>
<text text-anchor="middle" x="69.5" y="-257.3" font-family="Times,serif" font-size="14.00">Python Message</text>
</g>
<!-- py_upb_msg&#45;&gt;upb_msg -->
<g id="edge3" class="edge">
<title>py_upb_msg&#45;&gt;upb_msg</title>
<path fill="none" stroke="black" stroke-dasharray="5,2" d="M69.5,-242.68C69.5,-221.49 69.5,-200.3 69.5,-179.11"/>
<polygon fill="black" stroke="black" points="73,-179.05 69.5,-169.05 66,-179.05 73,-179.05"/>
</g>
<!-- py_upb_arena -->
<g id="node7" class="node">
<title>py_upb_arena</title>
<path fill="#beaed4" stroke="black" d="M238,-279C238,-279 171,-279 171,-279 165,-279 159,-273 159,-267 159,-267 159,-255 159,-255 159,-249 165,-243 171,-243 171,-243 238,-243 238,-243 244,-243 250,-249 250,-255 250,-255 250,-267 250,-267 250,-273 244,-279 238,-279"/>
<text text-anchor="middle" x="204.5" y="-257.3" font-family="Times,serif" font-size="14.00">Python Arena</text>
</g>
<!-- py_upb_msg&#45;&gt;py_upb_arena -->
<g id="edge6" class="edge">
<title>py_upb_msg&#45;&gt;py_upb_arena</title>
<path fill="none" stroke="#008b45" d="M123.07,-261C131.43,-261 140.1,-261 148.51,-261"/>
<polygon fill="#008b45" stroke="#008b45" points="148.62,-264.5 158.62,-261 148.62,-257.5 148.62,-264.5"/>
</g>
<!-- py_upb_msg2 -->
<g id="node6" class="node">
<title>py_upb_msg2</title>
<path fill="#beaed4" stroke="black" d="M381,-279C381,-279 298,-279 298,-279 292,-279 286,-273 286,-267 286,-267 286,-255 286,-255 286,-249 292,-243 298,-243 298,-243 381,-243 381,-243 387,-243 393,-249 393,-255 393,-255 393,-267 393,-267 393,-273 387,-279 381,-279"/>
<text text-anchor="middle" x="339.5" y="-257.3" font-family="Times,serif" font-size="14.00">Python Message</text>
</g>
<!-- py_upb_msg2&#45;&gt;upb_msg2 -->
<g id="edge4" class="edge">
<title>py_upb_msg2&#45;&gt;upb_msg2</title>
<path fill="none" stroke="black" stroke-dasharray="5,2" d="M339.5,-242.76C339.5,-230.63 339.5,-218.49 339.5,-206.35"/>
<polygon fill="black" stroke="black" points="343,-206.16 339.5,-196.16 336,-206.16 343,-206.16"/>
</g>
<!-- py_upb_msg2&#45;&gt;py_upb_arena -->
<g id="edge5" class="edge">
<title>py_upb_msg2&#45;&gt;py_upb_arena</title>
<path fill="none" stroke="#008b45" d="M285.91,-261C277.49,-261 268.77,-261 260.31,-261"/>
<polygon fill="#008b45" stroke="#008b45" points="260.16,-257.5 250.16,-261 260.16,-264.5 260.16,-257.5"/>
</g>
<!-- py_upb_arena&#45;&gt;dummy -->
<g id="edge7" class="edge">
<title>py_upb_arena&#45;&gt;dummy</title>
<path fill="none" stroke="red" d="M204.5,-242.76C204.5,-240.95 204.5,-239.15 204.5,-237.34"/>
<polygon fill="red" stroke="red" points="208,-237 204.5,-227 201,-237 208,-237"/>
</g>
<!-- key -->
<g id="node8" class="node">
<title>key</title>
<text text-anchor="start" x="72.5" y="-63.8" font-family="Times,serif" font-size="14.00">raw ptr</text>
<text text-anchor="start" x="56.5" y="-44.8" font-family="Times,serif" font-size="14.00">unique ptr</text>
<text text-anchor="start" x="26.5" y="-25.8" font-family="Times,serif" font-size="14.00">shared (GC) ptr</text>
</g>
<!-- key2 -->
<g id="node9" class="node">
<title>key2</title>
<text text-anchor="start" x="202.5" y="-63.8" font-family="Times,serif" font-size="14.00"> </text>
<text text-anchor="start" x="202.5" y="-44.8" font-family="Times,serif" font-size="14.00"> </text>
<text text-anchor="start" x="202.5" y="-25.8" font-family="Times,serif" font-size="14.00"> </text>
</g>
<!-- key&#45;&gt;key2 -->
<g id="edge10" class="edge">
<title>key:e&#45;&gt;key2:w</title>
<path fill="none" stroke="black" stroke-dasharray="5,2" d="M115.5,-68C149.19,-68 160.08,-68 189.31,-68"/>
<polygon fill="black" stroke="black" points="189.5,-71.5 199.5,-68 189.5,-64.5 189.5,-71.5"/>
</g>
<!-- key&#45;&gt;key2 -->
<g id="edge11" class="edge">
<title>key:e&#45;&gt;key2:w</title>
<path fill="none" stroke="red" d="M115.5,-48C149.19,-48 160.08,-48 189.31,-48"/>
<polygon fill="red" stroke="red" points="189.5,-51.5 199.5,-48 189.5,-44.5 189.5,-51.5"/>
</g>
<!-- key&#45;&gt;key2 -->
<g id="edge12" class="edge">
<title>key:e&#45;&gt;key2:w</title>
<path fill="none" stroke="#008b45" d="M115.5,-29C149.19,-29 160.08,-29 189.31,-29"/>
<polygon fill="#008b45" stroke="#008b45" points="189.5,-32.5 199.5,-29 189.5,-25.5 189.5,-32.5"/>
</g>
<!-- key2&#45;&gt;upb_msg -->
</g>
</svg>
